<?xml version="1.0" standalone="no"?>
<!DOCTYPE svg PUBLIC "-//W3C//DTD SVG 20010904//EN"
 "http://www.w3.org/TR/2001/REC-SVG-20010904/DTD/svg10.dtd">
<svg version="1.0" xmlns="http://www.w3.org/2000/svg"
 width="700.000000pt" height="700.000000pt" viewBox="0 0 700.000000 700.000000"
 preserveAspectRatio="xMidYMid meet">
<metadata>
Created by potrace 1.11, written by Peter Selinger 2001-2013
</metadata>
<g transform="translate(0.000000,700.000000) scale(0.100000,-0.100000)"
fill="#000000" stroke="none">
<path d="M3389 6985 c-198 -54 -337 -245 -323 -444 6 -82 13 -111 47 -181 21
-44 114 -146 150 -166 15 -9 17 -27 18 -165 1 -244 1 -237 -18 -243 -10 -2
-40 -7 -68 -11 -87 -10 -207 -34 -300 -61 -49 -14 -97 -27 -105 -29 -45 -10
-239 -92 -331 -139 -116 -59 -270 -156 -362 -229 l-58 -45 -137 137 -137 137
0 115 c0 113 -1 117 -37 190 -47 94 -112 160 -202 204 -239 118 -520 0 -606
-254 -36 -108 -28 -218 25 -326 80 -164 221 -247 415 -242 l95 3 137 -136 136
-136 -59 -79 c-240 -320 -404 -718 -445 -1080 -10 -94 12 -85 -214 -85 -110 0
-200 4 -200 9 0 17 -84 102 -133 135 -174 114 -406 89 -551 -59 -224 -231
-132 -610 174 -720 57 -21 180 -26 239 -10 76 20 153 64 206 119 28 28 55 59
60 69 9 16 30 18 208 20 108 1 198 -1 198 -5 1 -5 2 -11 3 -15 1 -5 5 -35 10
-68 47 -372 203 -755 434 -1063 l70 -93 -137 -138 -136 -137 -105 3 c-98 2
-110 0 -179 -29 -102 -43 -186 -123 -232 -220 -32 -69 -34 -79 -34 -183 0
-108 1 -113 37 -185 46 -94 112 -161 203 -206 219 -107 474 -17 583 206 36 73
37 79 38 192 l1 117 135 134 134 135 60 -45 c184 -139 387 -253 589 -330 143
-55 229 -78 435 -118 14 -3 52 -8 85 -11 33 -3 64 -10 68 -14 13 -12 10 -394
-3 -398 -23 -8 -110 -96 -138 -140 -82 -130 -89 -304 -18 -438 50 -94 159
-185 258 -215 18 -6 67 -12 108 -15 308 -17 538 295 430 584 -32 85 -109 183
-173 218 -14 8 -17 36 -17 202 -1 105 1 196 4 200 3 5 34 12 68 15 35 4 74 9
88 12 14 3 48 9 75 15 79 15 89 17 169 40 180 50 337 117 516 219 95 54 284
182 295 201 15 24 43 3 169 -123 l132 -132 -3 -95 c-4 -144 36 -248 129 -338
195 -189 511 -156 667 71 59 86 84 210 66 322 -17 109 -115 245 -214 299 -81
43 -135 55 -240 53 l-95 -3 -138 137 -137 138 60 78 c34 43 86 119 117 168 62
100 172 316 172 337 0 8 4 18 9 23 25 28 122 366 136 474 4 30 9 63 11 75 2
12 5 36 6 54 1 27 5 32 27 32 14 1 104 1 199 1 l172 1 40 -51 c160 -202 459
-223 644 -46 81 79 126 178 132 294 4 89 -8 146 -50 225 -141 271 -511 312
-715 80 -23 -26 -41 -51 -41 -55 0 -5 -90 -9 -199 -9 -226 0 -204 -10 -217 95
-5 33 -8 62 -9 65 -1 3 -5 25 -9 50 -4 25 -15 72 -23 105 -8 33 -17 68 -18 77
-6 31 -76 232 -97 278 -95 210 -175 346 -301 515 l-45 59 135 135 136 134 116
1 c114 1 119 2 193 39 154 76 247 221 249 387 1 194 -120 362 -303 421 -210
67 -434 -33 -531 -238 -30 -64 -32 -74 -32 -183 l0 -114 -138 -140 c-77 -76
-142 -135 -145 -130 -21 30 -231 173 -354 242 -116 65 -400 180 -484 196 -11
2 -46 11 -79 20 -33 8 -78 18 -100 22 -22 3 -47 8 -55 9 -8 2 -45 6 -83 10
-37 4 -70 11 -72 15 -3 4 -5 94 -5 200 -1 190 -1 192 22 208 194 136 250 388
132 589 -48 82 -139 156 -237 191 -55 19 -190 23 -248 7z m-86 -1831 c68 -131
240 -161 345 -61 57 54 69 89 71 213 l1 41 55 -9 c506 -79 930 -339 1239 -760
31 -42 56 -80 56 -83 0 -4 8 -19 18 -33 96 -137 206 -422 237 -612 8 -53 16
-93 21 -111 4 -14 -9 -17 -79 -21 -87 -6 -123 -19 -169 -63 -87 -82 -87 -224
0 -307 53 -51 75 -60 168 -66 46 -2 82 -8 80 -11 -2 -3 -7 -29 -10 -57 -3 -28
-8 -57 -10 -65 -3 -8 -7 -25 -10 -39 -29 -174 -136 -431 -254 -615 -136 -211
-334 -410 -552 -555 -119 -79 -381 -199 -490 -225 -3 -1 -23 -7 -45 -13 -22
-6 -55 -14 -74 -17 -19 -3 -37 -8 -41 -10 -3 -2 -33 -7 -65 -10 -33 -4 -63 -9
-67 -12 -5 -2 -8 15 -9 39 -2 142 -34 209 -124 256 -70 36 -185 18 -245 -39
-54 -52 -68 -97 -70 -227 0 -28 -3 -32 -22 -28 -13 3 -61 12 -108 21 -90 17
-264 67 -317 91 -17 8 -34 14 -37 14 -14 0 -187 87 -255 128 -228 138 -462
365 -604 588 -115 181 -223 437 -251 596 -4 18 -12 67 -20 108 -7 41 -13 76
-11 78 1 1 37 4 81 5 87 4 122 17 172 68 33 33 62 104 62 149 0 45 -29 116
-62 149 -49 50 -85 64 -174 69 l-81 4 9 54 c39 253 126 487 261 709 34 56 151
208 203 264 188 204 354 323 654 467 83 39 365 116 465 126 l30 3 7 -81 c3
-45 13 -94 21 -110z"/>
<path d="M4414 4475 c-147 -33 -256 -167 -256 -315 1 -67 4 -85 32 -145 27
-60 91 -123 155 -155 42 -21 64 -25 140 -25 106 0 160 22 231 92 61 61 87 121
92 212 5 99 -20 170 -86 240 -81 87 -194 122 -308 96z"/>
<path d="M2695 4365 c-80 -18 -126 -45 -191 -111 -72 -72 -104 -143 -109 -242
-9 -176 94 -324 265 -382 191 -65 401 39 476 235 24 63 24 190 0 255 -66 179
-260 287 -441 245z"/>
<path d="M3588 3151 c-195 -63 -320 -249 -303 -452 18 -224 206 -399 428 -400
290 -1 499 266 427 545 -63 241 -317 382 -552 307z"/>
</g>
</svg>
