<?xml version="1.0"?>
<svg xmlns="http://www.w3.org/2000/svg" id="Layer_37" enable-background="new 0 0 64 64" height="512px" viewBox="0 0 64 64" width="512px"><g><path d="m36.832 29.626c.168-.571.168-1.199.168-1.626 0-1.26-1.034-4.789-5.757-5.97l-2.109-.527.972 1.944c.243.486.514 1.52.187 1.846-.128.129-.468.298-.768.447-.944.47-2.525 1.257-2.525 3.26v.766c-.613.55-1 1.348-1 2.234 0 1.654 1.346 3 3 3h6c1.654 0 3-1.346 3-3 0-.965-.458-1.825-1.168-2.374zm-6.415-2.096c.458-.229.932-.464 1.291-.823.612-.611.77-1.388.736-2.105 2.043 1.079 2.556 2.773 2.556 3.398 0 .299 0 .771-.055 1h-5.945c0-.692.432-.979 1.417-1.47zm4.583 5.47h-6c-.551 0-1-.448-1-1s.449-1 1-1h6c.551 0 1 .448 1 1s-.449 1-1 1z" fill="#6F42C1"/><path d="m38.978 11h-2.344c-3.67 0-7.112 1.476-9.692 4.153-2.643 2.744-4.076 6.528-3.932 10.384l.395 10.577c.061 1.618 1.353 2.886 2.942 2.886h11.809c1.589 0 2.881-1.268 2.941-2.886l.822-22c.031-.821-.276-1.629-.841-2.216-.557-.579-1.304-.898-2.1-.898zm.12 25.04c-.02.538-.434.96-.942.96h-11.809c-.509 0-.923-.422-.943-.96l-.395-10.577c-.126-3.364 1.072-6.532 3.373-8.922 2.2-2.283 5.13-3.541 8.251-3.541h2.344c.248 0 .482.102.66.285.193.201.293.469.283.755z" fill="#6F42C1"/><path d="m32 19h6v2h-6z" fill="#6F42C1"/><path d="m34 15h4v2h-4z" fill="#6F42C1"/><path d="m49 10c0-8.897-16.306-9-17-9s-17 .103-17 9c0 2.338.618 4.669 1.271 7.137.811 3.058 1.729 6.525 1.729 10.863 0 3.568-.264 5.546-.52 7.459-.247 1.846-.48 3.59-.48 6.541 0 2.908 2.881 5.561 4 6.482v11.518c0 1.654 1.346 3 3 3h16c1.654 0 3-1.346 3-3v-11.518c1.119-.921 4-3.574 4-6.482 0-2.951-.233-4.695-.48-6.541-.256-1.913-.52-3.891-.52-7.459 0-4.338.918-7.805 1.729-10.863.653-2.468 1.271-4.799 1.271-7.137zm-4.362-3.992c-5.96.047-12.324.45-17.988 3.866-2.799-.775-6.453-2.291-7.475-3.77 4.128-3.049 12.711-3.104 12.825-3.104.112 0 8.442.107 12.638 3.008zm-3.638 50.992h-3c0-2.206-1.794-4-4-4h-4c-2.206 0-4 1.794-4 4h-3v-8h18zm-13 0c0-1.103.897-2 2-2h4c1.103 0 2 .897 2 2zm12 4h-16c-.551 0-1-.448-1-1v-1h18v1c0 .552-.449 1-1 1zm1.653-14h-19.306c-.932-.758-2.605-2.389-3.159-4h25.624c-.554 1.611-2.227 3.242-3.159 4zm4.142-30.375c-.841 3.177-1.795 6.777-1.795 11.375 0 3.701.273 5.746.538 7.724.208 1.557.406 3.039.452 5.276h-25.98c.046-2.237.244-3.719.452-5.276.265-1.978.538-4.023.538-7.724 0-4.598-.954-8.198-1.795-11.375-.647-2.44-1.205-4.548-1.205-6.625 0-.943.284-1.754.761-2.46 1.486 1.79 4.589 3.063 6.791 3.787-.769.593-1.527 1.234-2.259 1.967l1.414 1.414c6.564-6.564 15.141-6.703 22.791-6.706.316.593.502 1.254.502 1.998 0 2.077-.558 4.185-1.205 6.625z" fill="#6F42C1"/></g></svg>
